# xmcd
#
# Track frame offsets: 
#        150
#        20085
#        34654
#        58552
#        75387
#        92650
#        112729
#        134592
#        148097
#        170394
#        192142
#        212072
#        231830
#        251836
#
# Disc length: 3639 seconds
#
# Revision: 0
# Processed by: cddbd v1.5.2PL0 Copyright (c) Steve Scherf et al.
# Submitted via: ExactAudioCopy v0.95b4
#
DISCID=bc0e350e
DTITLE=Tom Ohmsen - Acoustinova
DYEAR=1900
DGENRE=Bluegrass
TTITLE0=She Who Loves Silence
TTITLE1=Marlinton
TTITLE2=Zocaca Bossa
TTITLE3=Little Swing House
TTITLE4=Perita
TTITLE5=Cheatham's Reprise
TTITLE6=Emerado
TTITLE7=Ten Sleep
TTITLE8=Too Fiv e
TTITLE9=In Dead
TTITLE10=So To Speak
TTITLE11=White Deer
TTITLE12=Cherokee
TTITLE13=Norwegian Wood
EXTD=
EXTT0=
EXTT1=
EXTT2=
EXTT3=
EXTT4=
EXTT5=
EXTT6=
EXTT7=
EXTT8=
EXTT9=
EXTT10=
EXTT11=
EXTT12=
EXTT13=
PLAYORDER=
